<svg width="32" height="32" viewBox="0 0 32 32" fill="none" xmlns="http://www.w3.org/2000/svg">
  <!-- Background circle -->
  <circle cx="16" cy="16" r="16" fill="#1a1a1a"/>
  
  <!-- Film strip border -->
  <rect x="2" y="2" width="28" height="28" rx="4" fill="none" stroke="#fbbf24" stroke-width="2"/>
  
  <!-- Film perforations -->
  <rect x="4" y="6" width="2" height="2" fill="#fbbf24"/>
  <rect x="4" y="10" width="2" height="2" fill="#fbbf24"/>
  <rect x="4" y="14" width="2" height="2" fill="#fbbf24"/>
  <rect x="4" y="18" width="2" height="2" fill="#fbbf24"/>
  <rect x="4" y="22" width="2" height="2" fill="#fbbf24"/>
  
  <rect x="26" y="6" width="2" height="2" fill="#fbbf24"/>
  <rect x="26" y="10" width="2" height="2" fill="#fbbf24"/>
  <rect x="26" y="14" width="2" height="2" fill="#fbbf24"/>
  <rect x="26" y="18" width="2" height="2" fill="#fbbf24"/>
  <rect x="26" y="22" width="2" height="2" fill="#fbbf24"/>
  
  <!-- Center movie icon -->
  <circle cx="16" cy="16" r="6" fill="#fbbf24"/>
  <path d="M13 13 L13 19 L19 16 Z" fill="#1a1a1a"/>
  
  <!-- AI sparkles -->
  <circle cx="10" cy="8" r="1" fill="#fbbf24" opacity="0.8"/>
  <circle cx="22" cy="8" r="1" fill="#fbbf24" opacity="0.8"/>
  <circle cx="10" cy="24" r="1" fill="#fbbf24" opacity="0.8"/>
  <circle cx="22" cy="24" r="1" fill="#fbbf24" opacity="0.8"/>
</svg>
